Coordinates
version=1
nRows=19
nColumns=36
inDegrees=yes

Units are S.I. units (second, meters, Newtons, ...)
If the header above contains a line with 'inDegrees', this indicates whether rotational values are in degrees (yes) or radians (no).

endheader
time	pelvis_tilt	pelvis_list	pelvis_rotation	pelvis_tx	pelvis_ty	pelvis_tz	hip_flexion_r	hip_adduction_r	hip_rotation_r	knee_angle_r	knee_angle_r_beta	ankle_angle_r	subtalar_angle_r	mtp_angle_r	hip_flexion_l	hip_adduction_l	hip_rotation_l	knee_angle_l	knee_angle_l_beta	ankle_angle_l	subtalar_angle_l	mtp_angle_l	lumbar_extension	lumbar_bending	lumbar_rotation	arm_flex_r	arm_add_r	arm_rot_r	elbow_flex_r	pro_sup_r	arm_flex_l	arm_add_l	arm_rot_l	elbow_flex_l	pro_sup_l
      1.39583330	    -11.82827174	     -1.54503832	      4.25592188	     -0.33031785	      1.30199624	     -0.07892835	     18.27946763	     -3.91093844	    -10.20353887	     50.19695352	      0.87610211	    -20.82647091	    -25.43297097	     -7.49999987	     13.79978151	     -2.38010424	      3.61982643	     53.75273997	      0.93816229	    -15.00174242	    -20.46748624	     -7.49999987	     -5.38113214	      2.58084047	     -2.43218176	      1.65416703	    -38.91368625	      4.16607762	     97.80517437	     91.92008313	     18.24260066	    -43.62287761	     14.74869208	    110.42591864	     86.74428142
      1.40000000	    -11.16602315	     -1.43885579	      4.27972183	     -0.32637055	      1.30266395	     -0.07805136	     17.98547036	     -3.83615421	    -10.38312122	     49.82030383	      0.86952834	    -20.47060635	    -25.94293819	     -7.49999987	     14.00494439	     -2.28937788	      3.66088181	     54.49287293	      0.95108005	    -14.22650352	    -20.41127853	     -7.49999987	     -6.02831461	      2.36489064	     -2.41507600	      1.43355196	    -38.53258597	      4.67517210	     96.68563110	     89.31664361	     18.23161450	    -43.62037928	     15.34614536	    109.41445584	     84.54346411
      1.40416670	    -10.91531223	     -1.29015660	      4.43116510	     -0.31734889	      1.30102600	     -0.07659257	     17.85748332	     -3.96030636	    -10.68832323	     49.38467658	      0.86192521	    -20.06508621	    -26.28959280	     -7.49999987	     14.33067842	     -2.23013061	      3.66446593	     55.09387332	      0.96156949	    -13.60578240	    -19.32106388	     -7.49999987	     -6.07119895	      2.11926432	     -2.55337019	      0.91608920	    -38.01270113	      4.52640199	     95.70293045	     93.67299802	     17.48677033	    -43.59259639	     14.86337621	    108.51784473	     88.38760767
      1.40833330	    -10.63216109	     -1.10925078	      4.80605393	     -0.31069498	      1.30403551	     -0.07710332	     17.57981882	     -4.17587026	    -11.07162743	     48.59040935	      0.84806263	    -19.80862529	    -26.55560163	     -7.49999987	     14.52047243	     -2.19199692	      3.59506717	     55.32652650	      0.96563005	    -13.06266506	    -18.03727708	     -7.49999987	     -6.45311249	      1.83144799	     -2.77149667	      0.08951438	    -37.40456743	      4.25326562	     94.96583238	     93.62163890	     16.89268701	    -43.61885211	     14.85463557	    107.80541205	     88.42247127
      1.41250000	    -10.43429032	     -0.89341107	      5.17416499	     -0.30468798	      1.30411951	     -0.07772382	     17.43262841	     -4.42425307	    -11.37777075	     47.79148365	      0.83411874	    -19.73346331	    -26.99201934	     -7.49999987	     14.87509392	     -2.04355385	      3.48952080	     55.38243219	      0.96660579	    -12.76732937	    -17.36084085	     -7.49999987	     -6.40100120	      1.44989115	     -2.97256134	     -0.57067302	    -36.90329096	      4.77254496	     93.83050122	     90.35709185	     16.91143443	    -43.59056113	     15.79962819	    106.55441139	     85.68818222
      1.41666670	     -9.93348702	     -0.59338513	      5.29709825	     -0.29919814	      1.30505939	     -0.07814044	     17.01626669	     -4.70864755	    -11.48586487	     46.91697467	      0.81885568	    -18.62905110	    -26.42263159	     -7.49999987	     15.01802977	     -1.95996663	      2.98235493	     55.55250948	      0.96957420	    -11.44394949	    -15.36227979	     -7.49999987	     -7.34977114	      1.03259662	     -2.59820394	     -2.07755299	    -36.26221156	      3.43676969	     93.72862742	     93.58148521	     17.23438573	    -43.40856666	     16.30802023	    105.66372030	     88.81327908
      1.42083330	     -9.51707871	     -0.48361275	      5.34740449	     -0.29207636	      1.30304522	     -0.07924392	     17.01564167	     -4.93406365	    -11.52601660	     46.62955841	      0.81383932	    -18.21767167	    -26.08479873	     -7.49999987	     15.08873054	     -1.87308347	      2.53247131	     55.57303195	      0.96993238	    -10.12072196	    -14.49153571	     -7.49999987	     -7.85689313	      0.85804954	     -2.57894696	     -2.70760063	    -36.05814764	      3.78327055	     93.08272692	     89.87512723	     17.04649820	    -43.35674608	     16.66524130	    104.71416960	     85.61269325
      1.42500000	     -9.26557766	     -0.39290673	      5.31587996	     -0.28434559	      1.30275487	     -0.07921314	     16.92049445	     -5.11205749	    -11.57493618	     45.79359891	      0.79924908	    -17.97348872	    -25.72761743	     -7.49999987	     15.30692535	     -1.83855918	      2.13276879	     55.45030805	      0.96779045	     -8.64994436	    -14.13627186	     -7.49999987	     -8.05166142	      0.68385529	     -2.83671559	     -2.88990999	    -35.62912679	      3.97506649	     92.07695558	     93.11395474	     16.09200727	    -43.22170785	     15.77141650	    103.80554770	     88.47370595
      1.42916670	     -8.89403348	     -0.30513195	      5.17129805	     -0.27690553	      1.30319110	     -0.08055669	     16.80313421	     -5.35269392	    -11.67159733	     45.35778658	      0.79164272	    -18.14552544	    -25.51960906	     -7.49999987	     15.10117749	     -1.76919871	      1.78693430	     54.69861794	      0.95467098	     -7.33493662	    -13.56212346	     -7.49999987	     -8.31675586	      0.56792251	     -2.78644510	     -3.32812692	    -35.52457533	      4.58157391	     91.15412110	     89.63841063	     15.73320228	    -43.05168415	     16.26802250	    102.63313987	     85.51025642
      1.43333330	     -8.98601373	     -0.33491302	      5.13714395	     -0.27137993	      1.30121839	     -0.08055055	     17.13125562	     -5.46532713	    -11.77920955	     44.66195848	      0.77949823	    -17.93408210	    -25.34173604	     -7.49999987	     15.66516345	     -1.70674727	      1.83647591	     54.19646455	      0.94590675	     -6.89761640	    -13.50097102	     -7.49999987	     -8.03806382	      0.48041778	     -2.78578754	     -3.97125437	    -35.38544352	      4.93527638	     90.22884408	     87.26304900	     15.31040338	    -42.80641959	     16.61886132	    101.59973986	     83.49138900
      1.43750000	     -8.49706515	     -0.26067560	      4.88293266	     -0.26332374	      1.30022828	     -0.08305009	     16.76503023	     -5.74608902	    -11.98308858	     43.88980964	      0.76602169	    -17.57620415	    -23.98032858	     -7.49999987	     15.29732285	     -1.55354361	      1.65848375	     53.52082863	      0.93411468	     -6.13164283	    -12.29159929	     -7.49999987	     -8.70700834	      0.57150507	     -3.33274655	     -3.61185762	    -35.21760900	      5.28946672	     89.64184366	     92.89485116	     12.95015625	    -42.53749408	     14.16467354	    101.68988691	     88.86907593
      1.44166670	     -8.26650703	     -0.26598964	      4.61874519	     -0.25676862	      1.29735583	     -0.08441062	     16.96529557	     -6.08911089	    -12.33747462	     43.52211801	      0.75960426	    -17.51475261	    -23.48717674	     -7.49999987	     15.14857621	     -1.32390187	      1.53843157	     52.87655422	      0.92286997	     -5.28783175	    -10.48761275	     -7.49999987	     -8.89458599	      0.67195544	     -3.28869986	     -4.04392474	    -35.37355833	      5.45586797	     89.07576148	     92.12799277	     11.79099650	    -41.99500818	     13.52110850	    101.09644629	     88.79242311
      1.44583330	     -8.09701020	     -0.24397468	      4.33547341	     -0.24967738	      1.29423538	     -0.08440207	     17.20298480	     -6.39145908	    -12.56555963	     43.17913504	      0.75361807	    -17.25569476	    -23.08318847	     -7.49999987	     15.41595534	     -1.15817017	      1.68070631	     52.49081592	      0.91613756	     -4.74536988	    -10.05916649	     -7.49999987	     -9.07990897	      0.65784091	     -3.07393811	     -4.50223514	    -35.53822359	      5.51247979	     88.59851329	     91.81772246	     11.14526424	    -41.81898526	     13.70074674	    100.64732973	     88.53708997
      1.45000000	     -7.73013691	     -0.16716941	      4.26773297	     -0.24327439	      1.29762401	     -0.08447588	     16.73651075	     -6.59439329	    -13.19882954	     41.82455311	      0.72997616	    -16.87739646	    -22.29223166	     -7.49999987	     15.22734318	     -1.22928278	      1.38222384	     51.76057138	      0.90339239	     -3.66476050	     -7.94457369	     -7.49999987	     -9.32281324	      0.57353346	     -2.86768891	     -4.88010058	    -35.35484212	      5.68088810	     86.97302243	     88.45946327	     10.81165641	    -41.19106961	     13.99925463	     98.92084046	     85.59004527
      1.45416670	     -7.37597277	     -0.02833933	      4.23883602	     -0.23654597	      1.29637212	     -0.08329914	     16.34479352	     -6.74001677	    -13.48840464	     40.61126219	      0.70880024	    -16.84371061	    -21.49813023	     -7.49999987	     15.12260705	     -1.28377948	      1.08250706	     51.11209850	      0.89207441	     -3.78852886	     -7.30282272	     -7.49999987	     -9.57751069	      0.35810240	     -2.77477804	     -5.30363906	    -35.13951087	      5.90514521	     85.85949403	     86.03053383	     10.42643431	    -40.91051405	     14.32025016	     97.83130051	     83.46292020
      1.45833330	     -7.03137515	      0.01261405	      4.27798754	     -0.23055120	      1.29726409	     -0.08342775	     15.95673076	     -6.80932865	    -14.07348607	     39.46878689	      0.68886028	    -16.97198572	    -20.36259022	     -7.49999987	     14.78122302	     -1.42836230	      0.53818707	     49.94453522	      0.87169658	     -4.30130502	     -7.33370868	     -7.49999987	    -10.13385353	      0.35278332	     -3.18971504	     -5.25930771	    -34.78643472	      5.97666798	     84.80147136	     91.57200026	      8.87186335	    -40.40691096	     12.68715566	     97.29443351	     88.76092895
      1.46250000	     -6.63043145	      0.17676824	      4.32456685	     -0.22477374	      1.29518737	     -0.08253481	     15.65313757	     -6.89055511	    -14.21843467	     38.25322850	      0.66764479	    -17.08537848	    -19.81837682	     -7.49999987	     14.74250435	     -1.47085624	      0.20311061	     49.09625863	      0.85689136	     -5.23576854	     -7.19378438	     -7.49999987	    -10.60696251	      0.13823352	     -3.17190517	     -5.58174940	    -34.38921368	      6.05638870	     83.71424592	     91.52672234	      8.43637236	    -40.05166276	     12.70659845	     96.22963922	     88.78421333
      1.46666670	     -6.41791905	      0.33956819	      4.45122693	     -0.21687063	      1.29298576	     -0.08358640	     15.40979572	     -7.03328095	    -14.29123038	     37.09763405	      0.64747586	    -16.70626217	    -18.58835773	     -7.49999987	     14.76274253	     -1.39529007	     -0.09119028	     48.11696589	      0.83979948	     -4.94615143	     -6.84817844	     -7.49999987	    -10.75081689	     -0.04997481	     -3.28127234	     -6.08214433	    -34.02979208	      6.16782660	     82.69552577	     91.23374619	      7.80740945	    -39.57572791	     12.67068878	     95.05392802	     88.55814701
      1.47083330	     -6.29541162	      0.41061730	      4.52522897	     -0.21235820	      1.28873805	     -0.08421334	     15.64421461	     -7.21396996	    -14.36570620	     36.39143652	      0.63515039	    -16.69459909	    -18.20893096	     -7.49999987	     15.06337366	     -1.28673337	     -0.20567722	     47.23025882	      0.82432352	     -4.46373266	     -6.77777130	     -7.49999987	    -11.10513239	     -0.04973284	     -3.28770132	     -6.72251974	    -33.99252502	      6.29756607	     82.26837395	     91.14463075	      7.12120811	    -39.36245138	     12.80813871	     94.64281592	     88.48641491
